<?xml version="1.0" encoding="iso-8859-1"?>
<!-- Generator: Adobe Illustrator 21.0.1, SVG Export Plug-In . SVG Version: 6.00 Build 0)  -->
<svg version="1.1" id="Layer_1" xmlns="http://www.w3.org/2000/svg" xmlns:xlink="http://www.w3.org/1999/xlink" x="0px" y="0px"
	 viewBox="0 0 265.092 31.604" style="enable-background:new 0 0 265.092 31.604;" xml:space="preserve">
<path d="M0,22.971h265.092v2.593H0V22.971z M0,31.604h265.092v-2.578H0V31.604z M47.167,12.401h7.975v6.603h4.381V0.971h-4.381
	v7.546h-7.975V0.971h-4.381v18.033h4.381V12.401z M65.785,19.004h-4.942l9.07-18.033h3.314l8.733,18.033h-4.858l-1.235-2.469H67.02
	L65.785,19.004z M68.845,13.011h5.307l-2.724-5.798L68.845,13.011z M88.221,0.971H83.84v18.033h4.381V0.971z M95.69,19.004h-4.465
	V0.971h8.874c3.734,0,6.542,3.163,6.542,7.102c0,2.608-1.319,4.467-3.257,5.493l4.016,5.438h-5.504l-3.005-4.494H95.69V19.004z
	 M95.69,10.543h3.707c1.488,0,2.724-0.972,2.724-2.47c0-1.47-1.207-2.663-2.696-2.663H95.69V10.543z M114.167,12.401h7.974v6.603
	h4.381V0.971h-4.381v7.546h-7.974V0.971h-4.381v18.033h4.381V12.401z M128.573,9.516c0-5.244,4.296-9.516,9.632-9.516
	c5.307,0,9.604,4.272,9.604,9.516c0,5.243-4.296,9.488-9.604,9.488C132.869,19.004,128.573,14.759,128.573,9.516z M132.785,9.516
	c0,2.941,2.415,5.327,5.419,5.327c2.976,0,5.392-2.386,5.392-5.327c0-2.941-2.415-5.354-5.392-5.354
	C135.199,4.161,132.785,6.575,132.785,9.516z M158.085,19.004c5.167,0,9.267-3.856,9.267-9.654V0.5h-4.465v8.85
	c0,2.83-2.022,5.188-4.802,5.188c-2.808,0-4.83-2.358-4.83-5.188V0.5h-4.465v8.85C148.791,15.148,152.891,19.004,158.085,19.004z
	 M176.675,15.425c-3.229,0-3.426-2.441-3.426-2.469h-4.746c0,2.441,2.583,6.048,8.172,6.048c4.352,0,8.059-2.608,8.059-5.715
	c0-4.772-4.802-5.382-7.357-5.854c-1.011-0.167-3.846-0.167-3.846-1.637c0-1.221,1.319-2.191,2.92-2.191
	c2.387,0,3.145,0.943,3.145,1.387h4.521c0-2.413-2.527-4.994-7.666-4.994c-4.212,0-7.666,2.608-7.666,5.798
	c0,3.413,3.623,4.356,5.757,4.772c1.207,0.25,5.448,0.417,5.448,2.719C179.989,14.399,178.416,15.425,176.675,15.425z
	 M200.712,15.148h-9.35V11.93h7.385V8.073h-7.385V4.855h9.35V0.971H186.98v18.033h13.732V15.148z M260.712,0.971v11.194L252.728,1
	V0.971h-0.02h-4.361h-0.02L248.348,1v18.004h4.381V7.839l7.983,11.165h4.381V0.971H260.712z M246.092,15.148h-9.35V11.93h7.385
	V8.073h-7.385V4.855h9.35V0.971h-13.732v18.033h13.732V15.148z M209.209,19.004h4.381V7.839l4.292,6.002h2.811l4.292-6.002v11.165
	h4.381V1l0.02-0.029h-0.02h-4.361h-0.02V1l-5.697,7.968L213.589,1V0.971h-0.02h-4.361h-0.02L209.209,1V19.004z M204.873,18.979
	c1.317,0,2.385-1.03,2.385-2.301c0-1.271-1.068-2.301-2.385-2.301c-1.317,0-2.385,1.03-2.385,2.301
	C202.487,17.949,203.555,18.979,204.873,18.979z"/>
</svg>
